# Rhino

v 0.025 0.25 0
v 0.0125 0.25 0.021650635094611
v -0.0125 0.25 0.021650635094611
v -0.025 0.25 0
v -0.0125 0.25 -0.021650635094611
v 0.0125 0.25 -0.021650635094611
v 0.025 -0.25 0
v 0.0125 -0.25 0.021650635094611
v -0.0125 -0.25 0.021650635094611
v -0.025 -0.25 0
v -0.0125 -0.25 -0.021650635094611
v 0.0125 -0.25 -0.021650635094611
v 0 0.25 0
v 0.025 0.25 0
v 0.0125 0.25 0.021650635094611
v -0.0125 0.25 0.021650635094611
v -0.025 0.25 0
v -0.0125 0.25 -0.021650635094611
v 0.0125 0.25 -0.021650635094611
v 0 -0.25 0
v 0.025 -0.25 0
v 0.0125 -0.25 0.021650635094611
v -0.0125 -0.25 0.021650635094611
v -0.025 -0.25 0
v -0.0125 -0.25 -0.021650635094611
v 0.0125 -0.25 -0.021650635094611
v 0.25 -0.025 0
v 0.25 -0.0125 0.021650635094611
v 0.25 0.0125 0.021650635094611
v 0.25 0.025 0
v 0.25 0.0125 -0.021650635094611
v 0.25 -0.0125 -0.021650635094611
v -0.25 -0.025 0
v -0.25 -0.0125 0.021650635094611
v -0.25 0.0125 0.021650635094611
v -0.25 0.025 0
v -0.25 0.0125 -0.021650635094611
v -0.25 -0.0125 -0.021650635094611
v 0.25 0 0
v 0.25 -0.025 0
v 0.25 -0.0125 0.021650635094611
v 0.25 0.0125 0.021650635094611
v 0.25 0.025 0
v 0.25 0.0125 -0.021650635094611
v 0.25 -0.0125 -0.021650635094611
v -0.25 0 0
v -0.25 -0.025 0
v -0.25 -0.0125 0.021650635094611
v -0.25 0.0125 0.021650635094611
v -0.25 0.025 0
v -0.25 0.0125 -0.021650635094611
v -0.25 -0.0125 -0.021650635094611
v 0 -0.025 -0.25
v 0.021650635094611 -0.0125 -0.25
v 0.021650635094611 0.0125 -0.25
v 0 0.025 -0.25
v -0.021650635094611 0.0125 -0.25
v -0.021650635094611 -0.0125 -0.25
v 0 -0.025 0.25
v 0.021650635094611 -0.0125 0.25
v 0.021650635094611 0.0125 0.25
v 0 0.025 0.25
v -0.021650635094611 0.0125 0.25
v -0.021650635094611 -0.0125 0.25
v 0 0 -0.25
v 0 -0.025 -0.25
v 0.021650635094611 -0.0125 -0.25
v 0.021650635094611 0.0125 -0.25
v 0 0.025 -0.25
v -0.021650635094611 0.0125 -0.25
v -0.021650635094611 -0.0125 -0.25
v 0 0 0.25
v 0 -0.025 0.25
v 0.021650635094611 -0.0125 0.25
v 0.021650635094611 0.0125 0.25
v 0 0.025 0.25
v -0.021650635094611 0.0125 0.25
v -0.021650635094611 -0.0125 0.25
vt 0 0
vt 0.16666667163372 0
vt 0.333333343267441 0
vt 0.5 0
vt 0.666666686534882 0
vt 0.833333313465118 0
vt 0 1
vt 0.16666667163372 1
vt 0.333333343267441 1
vt 0.5 1
vt 0.666666686534882 1
vt 0.833333313465118 1
vt 0.5 0.5
vt 1 0.5
vt 0.75 0.933012723922729
vt 0.25 0.933012723922729
vt 0 0.5
vt 0.25 0.0669872984290123
vt 0.75 0.0669872984290123
vt 0.5 0.5
vt 1 0.5
vt 0.75 0.0669872984290123
vt 0.25 0.0669872984290123
vt 0 0.5
vt 0.25 0.933012723922729
vt 0.75 0.933012723922729
vt 0 0
vt 0.16666667163372 0
vt 0.333333343267441 0
vt 0.5 0
vt 0.666666686534882 0
vt 0.833333313465118 0
vt 0 1
vt 0.16666667163372 1
vt 0.333333343267441 1
vt 0.5 1
vt 0.666666686534882 1
vt 0.833333313465118 1
vt 0.5 0.5
vt 1 0.5
vt 0.75 0.933012723922729
vt 0.25 0.933012723922729
vt 0 0.5
vt 0.25 0.0669872984290123
vt 0.75 0.0669872984290123
vt 0.5 0.5
vt 1 0.5
vt 0.75 0.0669872984290123
vt 0.25 0.0669872984290123
vt 0 0.5
vt 0.25 0.933012723922729
vt 0.75 0.933012723922729
vt 0 0
vt 0.16666667163372 0
vt 0.333333343267441 0
vt 0.5 0
vt 0.666666686534882 0
vt 0.833333313465118 0
vt 0 1
vt 0.16666667163372 1
vt 0.333333343267441 1
vt 0.5 1
vt 0.666666686534882 1
vt 0.833333313465118 1
vt 0.5 0.5
vt 1 0.5
vt 0.75 0.933012723922729
vt 0.25 0.933012723922729
vt 0 0.5
vt 0.25 0.0669872984290123
vt 0.75 0.0669872984290123
vt 0.5 0.5
vt 1 0.5
vt 0.75 0.0669872984290123
vt 0.25 0.0669872984290123
vt 0 0.5
vt 0.25 0.933012723922729
vt 0.75 0.933012723922729
vn 1 0 0
vn 0.5 0 0.866025388240814
vn -0.5 0 0.866025388240814
vn -1 0 0
vn -0.5 0 -0.866025388240814
vn 0.5 0 -0.866025388240814
vn 1 0 0
vn 0.5 0 0.866025388240814
vn -0.5 0 0.866025388240814
vn -1 0 0
vn -0.5 0 -0.866025388240814
vn 0.5 0 -0.866025388240814
vn 0 1 0
vn 0 1 0
vn 0 1 0
vn 0 1 0
vn 0 1 0
vn 0 1 0
vn 0 1 0
vn 0 -1 0
vn 0 -1 0
vn 0 -1 0
vn 0 -1 0
vn 0 -1 0
vn 0 -1 0
vn 0 -1 0
vn 0 -1 0
vn 0 -0.5 0.866025388240814
vn 0 0.5 0.866025388240814
vn 0 1 0
vn 0 0.5 -0.866025388240814
vn 0 -0.5 -0.866025388240814
vn 0 -1 0
vn 0 -0.5 0.866025388240814
vn 0 0.5 0.866025388240814
vn 0 1 0
vn 0 0.5 -0.866025388240814
vn 0 -0.5 -0.866025388240814
vn 1 0 0
vn 1 0 0
vn 1 0 0
vn 1 0 0
vn 1 0 0
vn 1 0 0
vn 1 0 0
vn -1 0 0
vn -1 0 0
vn -1 0 0
vn -1 0 0
vn -1 0 0
vn -1 0 0
vn -1 0 0
vn 0 -1 0
vn 0.866025388240814 -0.5 0
vn 0.866025388240814 0.5 0
vn 0 1 0
vn -0.866025388240814 0.5 0
vn -0.866025388240814 -0.5 0
vn 0 -1 0
vn 0.866025388240814 -0.5 0
vn 0.866025388240814 0.5 0
vn 0 1 0
vn -0.866025388240814 0.5 0
vn -0.866025388240814 -0.5 0
vn 0 0 -1
vn 0 0 -1
vn 0 0 -1
vn 0 0 -1
vn 0 0 -1
vn 0 0 -1
vn 0 0 -1
vn 0 0 1
vn 0 0 1
vn 0 0 1
vn 0 0 1
vn 0 0 1
vn 0 0 1
vn 0 0 1
f 15/15/15 14/14/14 19/19/19 18/18/18 17/17/17 16/16/16
f 21/21/21 22/22/22 23/23/23 24/24/24 25/25/25 26/26/26
f 41/41/41 40/40/40 45/45/45 44/44/44 43/43/43 42/42/42
f 47/47/47 48/48/48 49/49/49 50/50/50 51/51/51 52/52/52
f 67/67/67 66/66/66 71/71/71 70/70/70 69/69/69 68/68/68
f 73/73/73 74/74/74 75/75/75 76/76/76 77/77/77 78/78/78
f 1/1/1 2/2/2 8/8/8 7/7/7
f 2/2/2 3/3/3 9/9/9 8/8/8
f 3/3/3 4/4/4 10/10/10 9/9/9
f 4/4/4 5/5/5 11/11/11 10/10/10
f 5/5/5 6/6/6 12/12/12 11/11/11
f 6/6/6 1/1/1 7/7/7 12/12/12
f 27/27/27 28/28/28 34/34/34 33/33/33
f 28/28/28 29/29/29 35/35/35 34/34/34
f 29/29/29 30/30/30 36/36/36 35/35/35
f 30/30/30 31/31/31 37/37/37 36/36/36
f 31/31/31 32/32/32 38/38/38 37/37/37
f 32/32/32 27/27/27 33/33/33 38/38/38
f 53/53/53 54/54/54 60/60/60 59/59/59
f 54/54/54 55/55/55 61/61/61 60/60/60
f 55/55/55 56/56/56 62/62/62 61/61/61
f 56/56/56 57/57/57 63/63/63 62/62/62
f 57/57/57 58/58/58 64/64/64 63/63/63
f 58/58/58 53/53/53 59/59/59 64/64/64
