# Rhino

v -0.499999999999998 -0.1 -0.5
v -0.5 -0.1 0
v 0.500000000000002 -0.1 0
v 0.500000000000002 -0.1 -0.5
v -0.499999999999998 0.1 -0.5
v -0.5 0.1 0
v 0.500000000000002 0.1 0
v 0.500000000000002 0.1 -0.5
v -0.5 -0.1 0
v 0.500000000000002 -0.1 0
v 0.500000000000002 0.1 0
v -0.5 0.1 0
v 0.500000000000002 -0.1 0
v 0.500000000000002 -0.1 -0.5
v 0.500000000000002 0.1 -0.5
v 0.500000000000002 0.1 0
v 0.500000000000002 -0.1 -0.5
v -0.499999999999998 -0.1 -0.5
v -0.499999999999998 0.1 -0.5
v 0.500000000000002 0.1 -0.5
v -0.499999999999998 -0.1 -0.5
v -0.5 -0.1 0
v -0.5 0.1 0
v -0.499999999999998 0.1 -0.5
vt 0 0
vt 1 0
vt 1 1
vt 0 1
vt 0 0
vt 1 0
vt 1 1
vt 0 1
vt 1 0
vt 1 1
vt 1 1
vt 1 0
vt 1 1
vt 0 1
vt 0 1
vt 1 1
vt 0 1
vt 0 0
vt 0 0
vt 0 1
vt 0 0
vt 1 0
vt 1 0
vt 0 0
vn 0 -1 0
vn 0 -1 0
vn 0 -1 0
vn 0 -1 0
vn 0 1 0
vn 0 1 0
vn 0 1 0
vn 0 1 0
vn 0 0 1
vn 0 0 1
vn 0 0 1
vn 0 0 1
vn 1 0 0
vn 1 0 0
vn 1 0 0
vn 1 0 0
vn 0 0 -1
vn 0 0 -1
vn 0 0 -1
vn 0 0 -1
vn -1 0 0
vn -1 0 0
vn -1 0 0
vn -1 0 0
f 1/1/1 4/4/4 3/3/3 2/2/2
f 5/5/5 6/6/6 7/7/7 8/8/8
f 9/9/9 10/10/10 11/11/11 12/12/12
f 13/13/13 14/14/14 15/15/15 16/16/16
f 17/17/17 18/18/18 19/19/19 20/20/20
f 21/21/21 22/22/22 23/23/23 24/24/24
